<svg id="LOGO" xmlns="http://www.w3.org/2000/svg" viewBox="0 0 533.64 233.46"><defs><style>.cls-1{fill:#ff3285;}.cls-2{fill:#0000ea;}</style></defs><title>LOGO-TYPO-RVB</title><g id="PICTO"><path id="feuille" class="cls-1" d="M744.57,171.86A75,75,0,0,1,722,167.13c-10.73-4.15-23.64-18.08-42.91-22.29-21.93-4.78-33.75,2.74-38.91,7.76A24.5,24.5,0,0,0,638,155a2.14,2.14,0,0,0,.1,2.77l.34.37c.49.53,1.1,1.17,1.82,1.9,7.37,7.52,26.54,24.59,51.32,28a76.92,76.92,0,0,0,24-.62,101.21,101.21,0,0,0,30-10.54A2.72,2.72,0,0,0,744.57,171.86Zm-51.11-2c-5.56-2.91-14.16-7.9-23.13-10.09-10-2.44-24.59-1.87-29.43-2.1a1.38,1.38,0,0,1-.07-2.76c7.3-.73,22.19-1.72,31.25.58,8.79,2.22,18.62,8.59,22.92,12A1.42,1.42,0,0,1,693.46,169.91Z" transform="translate(-213.44 -138.53)"/><path id="roue" class="cls-1" d="M637.75,210.17a68.2,68.2,0,1,0,68.2,68.2A68.21,68.21,0,0,0,637.75,210.17Zm45.39,33.65c6.69,8.39,5.6,19.51,1.89,20.55L649.1,274.46c-3.71,1-5.24-.88-3.4-4.27l17.82-32.78C665.36,234,676.91,236,683.14,243.82Zm-91.1,0c6.69-8.39,17.77-9.8,19.62-6.41l17.82,32.78c1.84,3.39.31,5.31-3.4,4.27l-35.93-10.08C586.44,263.34,585.81,251.64,592,243.83Zm-11.25,49.29c-2.38-10.46,3.42-20,7.22-19.34l36.74,6.51c3.8.67,4.35,3.06,1.22,5.32l-30.28,21.8C592.56,309.66,583,302.86,580.79,293.12Zm53.82-.48-1.83,37.27c-.19,3.85-11.46,7.07-20.46,2.73C602.65,328,598.81,317.5,601.7,315l28-24.68C632.59,287.73,634.8,288.79,634.61,292.64Zm.25-25-14.52-34.37c-1.5-3.55,7.25-11.34,17.25-11.34,10.73,0,18.74,7.79,17.24,11.34L640.31,267.6C638.81,271.16,636.36,271.16,634.86,267.6Zm28,65c-9.66,4.65-20.26,1.12-20.45-2.73l-1.84-37.27c-.19-3.85,2-4.92,4.92-2.37l28,24.67C676.39,317.49,671.88,328.3,662.87,332.64ZM679.5,307.4l-30.28-21.8c-3.13-2.26-2.58-4.65,1.21-5.32l36.74-6.51c3.8-.67,9.44,9.6,7.22,19.34C692,303.57,682.63,309.65,679.5,307.4Z" transform="translate(-213.44 -138.53)"/><rect id="queue" class="cls-1" x="622.3" y="139.76" width="17.65" height="30.72" rx="1.92" ry="1.92" transform="translate(-232.2 11.22) rotate(-13.33)"/><path id="tour_pomelo" data-name="tour pomelo" class="cls-1" d="M706.78,207.43l-7.63-12.49a3.06,3.06,0,0,0-2.18-1.43c-8.26-1.22-26-6.43-32.43-9.77-15-7.81-20.67-18-24.07-24.66-.72-.73-1.32-1.37-1.81-1.9-3.26-.54-13.07-.47-13.5-.4-15.16,2.49-26.81,10.35-36.72,20.73C570.52,196.3,543.58,245,544,279.47a93.58,93.58,0,1,0,187.14-2.13C730.87,256.14,719.58,229,706.78,207.43Zm-69,147.51a76.57,76.57,0,1,1,76.57-76.57A76.57,76.57,0,0,1,637.75,354.94Z" transform="translate(-213.44 -138.53)"/></g><g id="POMELO"><path class="cls-2" d="M229.81,335.6h-8.6v15.18a3.89,3.89,0,0,1-7.77,0V309.5a3.84,3.84,0,0,1,3.85-3.85h12.52a15,15,0,1,1,0,30Zm-8.6-7.77h8.6a7.21,7.21,0,1,0,0-14.41h-8.6Z" transform="translate(-213.44 -138.53)"/><path class="cls-2" d="M298.1,311.74a25.69,25.69,0,0,1,0,35.4,22.91,22.91,0,0,1-16.72,7.49,23.6,23.6,0,0,1-17.14-7.49,26.07,26.07,0,0,1,0-35.4,23.34,23.34,0,0,1,17.14-7.49A22.65,22.65,0,0,1,298.1,311.74Zm-.91,17.7a18.11,18.11,0,0,0-4.76-12.24,15.08,15.08,0,0,0-22.38,0,17.78,17.78,0,0,0-4.76,12.24,17.51,17.51,0,0,0,4.76,12.18,15,15,0,0,0,22.38,0A17.82,17.82,0,0,0,297.19,329.44Z" transform="translate(-213.44 -138.53)"/><path class="cls-2" d="M363.52,309.5v41.28a3.94,3.94,0,0,1-3.91,3.85,3.84,3.84,0,0,1-3.85-3.85V321.33l-10.08,14a3.82,3.82,0,0,1-3.15,1.61h-.14a3.94,3.94,0,0,1-3.21-1.61l-10-14v29.45a3.89,3.89,0,0,1-7.77,0V309.5a3.88,3.88,0,0,1,3.85-3.85h.21a3.79,3.79,0,0,1,3.08,1.61l13.92,19.31,13.93-19.31a3.82,3.82,0,0,1,3.15-1.61h.07A4,4,0,0,1,363.52,309.5Z" transform="translate(-213.44 -138.53)"/><path class="cls-2" d="M382.21,350.78V309.5a3.8,3.8,0,0,1,3.85-3.85h22.88a3.88,3.88,0,0,1,3.84,3.85,3.94,3.94,0,0,1-3.84,3.92H390v12.8h16.31a3.89,3.89,0,0,1,0,7.77H390v12.87h19a3.89,3.89,0,0,1,0,7.77H386.27c-.14,0-.14-.07-.14-.07l-.07.07A3.84,3.84,0,0,1,382.21,350.78Z" transform="translate(-213.44 -138.53)"/><path class="cls-2" d="M429,350.78V309.5a3.84,3.84,0,0,1,3.85-3.85,3.9,3.9,0,0,1,3.91,3.85v37.36h19a3.89,3.89,0,0,1,0,7.77H432.8A3.84,3.84,0,0,1,429,350.78Z" transform="translate(-213.44 -138.53)"/><path class="cls-2" d="M509.41,311.74a25.69,25.69,0,0,1,0,35.4,22.91,22.91,0,0,1-16.72,7.49,23.6,23.6,0,0,1-17.14-7.49,26.07,26.07,0,0,1,0-35.4,23.34,23.34,0,0,1,17.14-7.49A22.65,22.65,0,0,1,509.41,311.74Zm-.91,17.7a18.11,18.11,0,0,0-4.76-12.24,15.05,15.05,0,0,0-11.05-5,15.24,15.24,0,0,0-11.34,5,17.82,17.82,0,0,0-4.75,12.24,17.54,17.54,0,0,0,4.75,12.18,15.33,15.33,0,0,0,11.34,5,15.15,15.15,0,0,0,11.05-5A17.82,17.82,0,0,0,508.5,329.44Z" transform="translate(-213.44 -138.53)"/></g><g id="HELLO"><path class="cls-2" d="M428.6,263.19V221.91a3.84,3.84,0,0,1,3.85-3.85,3.9,3.9,0,0,1,3.91,3.85v37.36h19a3.89,3.89,0,0,1,0,7.77H432.45A3.84,3.84,0,0,1,428.6,263.19Z" transform="translate(-213.44 -138.53)"/><path class="cls-2" d="M509.06,224.15a25.69,25.69,0,0,1,0,35.4A22.91,22.91,0,0,1,492.34,267a23.6,23.6,0,0,1-17.14-7.49,26.07,26.07,0,0,1,0-35.4,23.34,23.34,0,0,1,17.14-7.49A22.65,22.65,0,0,1,509.06,224.15Zm-.91,17.7a18.13,18.13,0,0,0-4.76-12.24,15.05,15.05,0,0,0-11.05-5,15.24,15.24,0,0,0-11.34,5,17.84,17.84,0,0,0-4.75,12.24A17.54,17.54,0,0,0,481,254a15.3,15.3,0,0,0,11.34,5,15.12,15.12,0,0,0,11.05-5A17.82,17.82,0,0,0,508.15,241.85Z" transform="translate(-213.44 -138.53)"/><path class="cls-2" d="M381.76,263.19V221.91a3.84,3.84,0,0,1,3.85-3.85,3.9,3.9,0,0,1,3.91,3.85v37.37h19a3.88,3.88,0,0,1,0,7.76H385.61A3.84,3.84,0,0,1,381.76,263.19Z" transform="translate(-213.44 -138.53)"/><path class="cls-2" d="M325.78,263.28V222a3.8,3.8,0,0,1,3.85-3.85h22.88a3.88,3.88,0,0,1,3.85,3.85,4,4,0,0,1-3.85,3.92h-19v12.8h16.3a3.89,3.89,0,0,1,0,7.77h-16.3v12.87h19a3.89,3.89,0,0,1,0,7.77H329.84c-.14,0-.14-.07-.14-.07l-.07.07A3.84,3.84,0,0,1,325.78,263.28Z" transform="translate(-213.44 -138.53)"/><path class="cls-2" d="M265,263.28V222a3.8,3.8,0,0,1,3.85-3.85,3.85,3.85,0,0,1,3.92,3.85v16.79h18.12V222a3.8,3.8,0,0,1,3.85-3.85A3.85,3.85,0,0,1,298.7,222v41.28a3.85,3.85,0,0,1-3.92,3.85,3.8,3.8,0,0,1-3.85-3.85V246.49H272.81v16.79a3.85,3.85,0,0,1-3.92,3.85A3.8,3.8,0,0,1,265,263.28Z" transform="translate(-213.44 -138.53)"/></g></svg>